<svg width="142" height="142" viewBox="0 0 142 142" fill="none" xmlns="http://www.w3.org/2000/svg">
<circle cx="71" cy="71" r="71" fill="white"/>
<rect x="56.6604" y="27.6039" width="9.07402" height="93.2318" fill="#171717"/>
<path d="M75.3755 30.3232L81.6139 27.9924L82.9372 33.6251L81.2358 34.5963L80.6687 34.9848L80.1016 35.5675L79.7235 36.1502L79.5344 36.9271L78.0221 45.8618L76.5098 55.9619L75.3755 66.2562L74.4303 75.3852L73.296 85.8738L72.3508 105.88H64.7892L65.7344 85.8738L66.8686 75.3852L67.8138 66.2562L68.9481 55.9619L70.4604 45.8618L72.7289 35.179L75.3755 30.3232Z" fill="#171717"/>
<path d="M56.5367 49.1074C51.1111 54.1802 39.432 48.7198 37.3591 46.3794C35.2862 44.0389 46.6072 49.0948 52.0327 44.0221C57.4582 38.9494 54.9337 25.6689 57.0066 28.0094C59.0795 30.3498 61.9622 44.0347 56.5367 49.1074Z" fill="#171717"/>
<path d="M64.4925 99.4965C69.918 94.4237 81.5972 99.8841 83.67 102.225C85.7429 104.565 74.4219 99.5091 68.9964 104.582C63.5709 109.655 66.0954 122.935 64.0225 120.595C61.9496 118.254 59.0669 104.569 64.4925 99.4965Z" fill="#171717"/>
<path d="M75.4569 29.5726C80.8824 24.4999 92.5616 29.9603 94.6345 32.3007C96.7074 34.6412 85.3864 29.5853 79.9608 34.658C74.5353 39.7307 77.0598 53.0112 74.9869 50.6707C72.9141 48.3302 70.0314 34.6454 75.4569 29.5726Z" fill="#171717"/>
<path d="M94.7232 31.9035C89.2976 26.8307 77.6185 32.2911 75.5456 34.6315C73.4727 36.972 84.7937 31.9161 90.2192 36.9888C95.6447 42.0615 93.1202 55.342 95.1931 53.0015C97.266 50.6611 100.149 36.9762 94.7232 31.9035Z" fill="#171717"/>
<mask id="path-8-inside-1_19_12" fill="white">
<ellipse cx="76.3208" cy="109.959" rx="10.5864" ry="10.877"/>
</mask>
<path d="M71.9071 109.959C71.9071 108.067 73.5027 105.836 76.3208 105.836V135.836C90.8321 135.836 101.907 123.865 101.907 109.959H71.9071ZM76.3208 105.836C79.1388 105.836 80.7344 108.067 80.7344 109.959H50.7344C50.7344 123.865 61.8094 135.836 76.3208 135.836V105.836ZM80.7344 109.959C80.7344 111.85 79.1388 114.082 76.3208 114.082V84.0816C61.8094 84.0816 50.7344 96.0528 50.7344 109.959H80.7344ZM76.3208 114.082C73.5027 114.082 71.9071 111.85 71.9071 109.959H101.907C101.907 96.0528 90.8321 84.0816 76.3208 84.0816V114.082Z" fill="#171717" mask="url(#path-8-inside-1_19_12)"/>
</svg>
